<?xml version="1.0" encoding="iso-8859-1"?>
<!-- Generator: Adobe Illustrator 19.0.0, SVG Export Plug-In . SVG Version: 6.00 Build 0)  -->
<svg version="1.1" id="Layer_1" xmlns="http://www.w3.org/2000/svg" xmlns:xlink="http://www.w3.org/1999/xlink" x="0px" y="0px"
	 viewBox="0 0 512 512" style="enable-background:new 0 0 512 512;" xml:space="preserve">
<path style="fill:#BF360C;" d="M502.92,188.251C473.217,79.747,373.929,0,256,0C114.615,0,0,114.615,0,256
	c0,117.929,79.747,217.217,188.251,246.92L502.92,188.251z"/>
<path style="fill:#263238;" d="M502.92,188.252l-89.587-89.587l-7.797,7.797C367.268,68.193,314.398,44.522,256,44.522
	C139.204,44.522,44.522,139.203,44.522,256c0,58.398,23.67,111.268,61.941,149.539l-7.797,7.797l89.586,89.586
	C209.832,508.828,232.545,512,256,512c141.384,0,256-114.616,256-256C512,232.545,508.828,209.832,502.92,188.252z"/>
<path style="fill:#B2EBF2;" d="M256,33.391L200.348,256L256,478.609c122.943,0,222.609-99.665,222.609-222.609
	S378.943,33.391,256,33.391z"/>
<path style="fill:#FFFFFF;" d="M33.391,256c0,122.943,99.665,222.609,222.609,222.609V33.391
	C133.057,33.391,33.391,133.057,33.391,256z"/>
<path style="fill:#FF5722;" d="M256,55.652L205.913,256L256,456.348c110.649,0,200.348-89.699,200.348-200.348
	S366.649,55.652,256,55.652z"/>
<path style="fill:#FF7043;" d="M55.652,256c0,110.649,89.699,200.348,200.348,200.348V55.652
	C145.351,55.652,55.652,145.351,55.652,256z"/>
<polygon style="fill:#E0F7FA;" points="389.797,169.426 342.575,122.203 256,208.777 233.739,256 256,303.223 342.575,389.797 
	389.797,342.574 303.222,256 "/>
<polygon style="fill:#FFFFFF;" points="169.425,122.203 122.203,169.426 208.778,256 122.203,342.574 169.425,389.797 256,303.223 
	256,208.777 "/>
<g>
</g>
<g>
</g>
<g>
</g>
<g>
</g>
<g>
</g>
<g>
</g>
<g>
</g>
<g>
</g>
<g>
</g>
<g>
</g>
<g>
</g>
<g>
</g>
<g>
</g>
<g>
</g>
<g>
</g>
</svg>
