<?xml version="1.0" encoding="iso-8859-1"?>
<!-- Generator: Adobe Illustrator 19.0.0, SVG Export Plug-In . SVG Version: 6.00 Build 0)  -->
<svg version="1.1" id="Capa_1" xmlns="http://www.w3.org/2000/svg" xmlns:xlink="http://www.w3.org/1999/xlink" x="0px" y="0px"
	 viewBox="0 0 512 512" style="enable-background:new 0 0 512 512;" xml:space="preserve">
<path style="fill:#4A5A5E;" d="M131.027,380.973c-2.977-2.977-7.804-2.977-10.781,0L2.233,498.986
	c-2.977,2.977-2.977,7.804,0,10.781c2.977,2.977,7.804,2.977,10.781,0l118.014-118.014
	C134.004,388.776,134.004,383.95,131.027,380.973z"/>
<path style="fill:#435256;" d="M109.429,453.648l-51.077-51.077c-8.951-8.951-8.951-23.465,0-32.416l67.285-67.285l83.493,83.493
	l-67.285,67.285C132.894,462.599,118.38,462.599,109.429,453.648z"/>
<path style="fill:#334144;" d="M171.614,348.847l-67.285,67.285c-8.952,8.952-23.465,8.952-32.416,0l37.516,37.516
	c8.951,8.952,23.465,8.952,32.416,0l67.285-67.285L171.614,348.847z"/>
<path style="fill:#FC5F61;" d="M407.111,232.299l-127.41-127.41l99.955-99.955c6.579-6.579,17.245-6.579,23.824,0L507.066,108.52
	c6.579,6.579,6.579,17.245,0,23.824L407.111,232.299z"/>
<path style="fill:#EC3E42;" d="M507.066,108.52L469.55,71.004c6.579,6.579,6.579,17.245,0,23.824l-99.955,99.955l37.516,37.516
	l99.955-99.955C513.645,125.765,513.645,115.099,507.066,108.52z"/>
<path style="fill:#DFEAEF;" d="M222.013,455.065L56.935,289.987c-6.579-6.579-6.579-17.245,0-23.824L257.15,65.948
	c6.579-6.579,17.245-6.579,23.824,0l165.077,165.077c6.579,6.579,6.579,17.245,0,23.824L245.837,455.065
	C239.258,461.644,228.591,461.644,222.013,455.065z"/>
<path style="fill:#BFCFD6;" d="M446.052,231.025l-37.516-37.516c6.579,6.579,6.579,17.245,0,23.824L208.321,417.549
	c-6.579,6.579-17.245,6.579-23.824,0l37.516,37.516c6.579,6.579,17.245,6.579,23.824,0L446.052,254.85
	C452.631,248.271,452.631,237.604,446.052,231.025z"/>
<g>
	<path style="fill:#FFD9A6;" d="M379.953,95.751L361.54,77.337c-2.456-2.456-2.456-6.437,0-8.893l18.413-18.413
		c2.456-2.456,6.437-2.456,8.893,0l18.413,18.413c2.456,2.456,2.456,6.437,0,8.893L388.846,95.75
		C386.39,98.206,382.409,98.206,379.953,95.751z"/>
	<path style="fill:#FFD9A6;" d="M434.663,150.46l-18.413-18.413c-2.456-2.456-2.456-6.437,0-8.893l18.413-18.413
		c2.456-2.456,6.437-2.456,8.893,0l18.413,18.413c2.456,2.456,2.456,6.437,0,8.893l-18.413,18.413
		C441.1,152.915,437.118,152.915,434.663,150.46z"/>
</g>
<path style="fill:#FC5F61;" d="M349.97,241.731c-2.977-2.977-7.804-2.977-10.781,0l-28.872,28.872l-52.036-6.104l57.482-57.482
	c2.977-2.977,2.977-7.804,0-10.781s-7.804-2.977-10.781,0L219.37,281.85l-6.104-52.036l28.872-28.872
	c2.977-2.977,2.977-7.804,0-10.781s-7.804-2.977-10.781,0l-31.483,31.483c-1.649,1.649-2.453,3.962-2.181,6.278l7.937,67.666
	l-27.042,27.042c-2.977,2.977-2.977,7.804,0,10.781c1.488,1.488,3.439,2.233,5.39,2.233s3.902-0.744,5.39-2.233l55.173-55.173
	l67.666,7.937c0.296,0.035,0.593,0.052,0.888,0.052c2.01,0,3.952-0.795,5.39-2.233l31.483-31.483
	C352.947,249.535,352.947,244.708,349.97,241.731z"/>
<g>
</g>
<g>
</g>
<g>
</g>
<g>
</g>
<g>
</g>
<g>
</g>
<g>
</g>
<g>
</g>
<g>
</g>
<g>
</g>
<g>
</g>
<g>
</g>
<g>
</g>
<g>
</g>
<g>
</g>
</svg>
