<?xml version="1.0" encoding="iso-8859-1"?>
<!-- Generator: Adobe Illustrator 19.0.0, SVG Export Plug-In . SVG Version: 6.00 Build 0)  -->
<svg version="1.1" id="Capa_1" xmlns="http://www.w3.org/2000/svg" xmlns:xlink="http://www.w3.org/1999/xlink" x="0px" y="0px"
	 viewBox="0 0 512 512" style="enable-background:new 0 0 512 512;" xml:space="preserve">
<path style="fill:#53BBF3;" d="M462.087,485.216H49.913c-12.774,0-23.129-10.355-23.129-23.129V49.913
	c0-12.774,10.355-23.129,23.129-23.129h412.174c12.774,0,23.129,10.355,23.129,23.129v412.174
	C485.216,474.861,474.861,485.216,462.087,485.216z"/>
<path style="fill:#359EE0;" d="M462.087,26.784h-34.284v408.172c0,12.774-10.355,23.129-23.129,23.129H26.784v4.002
	c0,12.774,10.355,23.129,23.129,23.129h412.174c12.774,0,23.129-10.355,23.129-23.129V49.913
	C485.216,37.139,474.861,26.784,462.087,26.784z"/>
<path style="fill:#DFEAEF;" d="M387.932,324.724V134.407c0-5.71-4.629-10.339-10.339-10.339H134.407
	c-5.71,0-10.339,4.629-10.339,10.339v243.186c0,5.71,4.629,10.339,10.339,10.339h189.895c3.947,0,7.735-1.559,10.538-4.338
	l48.661-48.24C386.337,332.543,387.932,328.716,387.932,324.724z"/>
<path style="fill:#BFCFD6;" d="M377.593,124.068h-52.914c5.71,0,10.339,4.629,10.339,10.339v190.317c0,3.992-1.595,7.82-4.43,10.63
	l-30.129,29.868c-3.343,3.314-7.859,5.173-12.565,5.173H134.407c-5.71,0-10.339-4.629-10.339-10.339v17.538
	c0,5.71,4.629,10.339,10.339,10.339h136.981h52.914c3.947,0,7.735-1.559,10.538-4.338l48.661-48.24
	c2.835-2.811,4.43-6.638,4.43-10.63v-17.538v-172.78C387.932,128.697,383.303,124.068,377.593,124.068z"/>
<g>
	<path style="fill:#9AADAF;" d="M7.5,380.185h21.079v-15H7.5c-4.142,0-7.5,3.358-7.5,7.5S3.358,380.185,7.5,380.185z"/>
	<path style="fill:#9AADAF;" d="M146.815,28.579V7.5c0-4.142-3.358-7.5-7.5-7.5s-7.5,3.358-7.5,7.5v21.079H146.815z"/>
	<path style="fill:#9AADAF;" d="M88.473,28.579V7.5c0-4.142-3.358-7.5-7.5-7.5s-7.5,3.358-7.5,7.5v21.079H88.473z"/>
	<path style="fill:#9AADAF;" d="M7.5,205.158h21.079v-15H7.5c-4.142,0-7.5,3.358-7.5,7.5S3.358,205.158,7.5,205.158z"/>
	<path style="fill:#9AADAF;" d="M7.5,321.842h21.079v-15H7.5c-4.142,0-7.5,3.358-7.5,7.5S3.358,321.842,7.5,321.842z"/>
	<path style="fill:#9AADAF;" d="M7.5,263.5h21.079v-15H7.5c-4.142,0-7.5,3.358-7.5,7.5S3.358,263.5,7.5,263.5z"/>
	<path style="fill:#9AADAF;" d="M7.5,146.815h21.079v-15H7.5c-4.142,0-7.5,3.358-7.5,7.5S3.358,146.815,7.5,146.815z"/>
	<path style="fill:#9AADAF;" d="M205.158,28.579V7.5c0-4.142-3.358-7.5-7.5-7.5s-7.5,3.358-7.5,7.5v21.079H205.158z"/>
	<path style="fill:#9AADAF;" d="M438.527,28.579V7.5c0-4.142-3.358-7.5-7.5-7.5s-7.5,3.358-7.5,7.5v21.079H438.527z"/>
</g>
<path style="fill:#8A9FA0;" d="M483.421,88.473H504.5c4.142,0,7.5-3.358,7.5-7.5s-3.358-7.5-7.5-7.5h-21.079V88.473z"/>
<g>
	<path style="fill:#9AADAF;" d="M380.185,28.579V7.5c0-4.142-3.358-7.5-7.5-7.5s-7.5,3.358-7.5,7.5v21.079H380.185z"/>
	<path style="fill:#9AADAF;" d="M263.5,28.579V7.5c0-4.142-3.358-7.5-7.5-7.5s-7.5,3.358-7.5,7.5v21.079H263.5z"/>
	<path style="fill:#9AADAF;" d="M321.842,28.579V7.5c0-4.142-3.358-7.5-7.5-7.5s-7.5,3.358-7.5,7.5v21.079H321.842z"/>
	<path style="fill:#9AADAF;" d="M7.5,88.473h21.079v-15H7.5c-4.142,0-7.5,3.358-7.5,7.5S3.358,88.473,7.5,88.473z"/>
</g>
<g>
	<path style="fill:#8A9FA0;" d="M423.527,483.421V504.5c0,4.142,3.358,7.5,7.5,7.5s7.5-3.358,7.5-7.5v-21.079H423.527z"/>
	<path style="fill:#8A9FA0;" d="M504.5,306.842h-21.079v15H504.5c4.142,0,7.5-3.358,7.5-7.5S508.642,306.842,504.5,306.842z"/>
</g>
<path style="fill:#9AADAF;" d="M28.579,423.527H7.5c-4.142,0-7.5,3.358-7.5,7.5s3.358,7.5,7.5,7.5h21.079V423.527z"/>
<g>
	<path style="fill:#8A9FA0;" d="M504.5,365.185h-21.079v15H504.5c4.142,0,7.5-3.358,7.5-7.5S508.642,365.185,504.5,365.185z"/>
	<path style="fill:#8A9FA0;" d="M504.5,131.815h-21.079v15H504.5c4.142,0,7.5-3.358,7.5-7.5S508.642,131.815,504.5,131.815z"/>
	<path style="fill:#8A9FA0;" d="M504.5,248.5h-21.079v15H504.5c4.142,0,7.5-3.358,7.5-7.5S508.642,248.5,504.5,248.5z"/>
	<path style="fill:#8A9FA0;" d="M504.5,190.158h-21.079v15H504.5c4.142,0,7.5-3.358,7.5-7.5S508.642,190.158,504.5,190.158z"/>
	<path style="fill:#8A9FA0;" d="M504.5,423.527h-21.079v15H504.5c4.142,0,7.5-3.358,7.5-7.5S508.642,423.527,504.5,423.527z"/>
	<path style="fill:#8A9FA0;" d="M190.158,483.421V504.5c0,4.142,3.358,7.5,7.5,7.5s7.5-3.358,7.5-7.5v-21.079H190.158z"/>
	<path style="fill:#8A9FA0;" d="M131.815,483.421V504.5c0,4.142,3.358,7.5,7.5,7.5s7.5-3.358,7.5-7.5v-21.079H131.815z"/>
	<path style="fill:#8A9FA0;" d="M73.473,483.421V504.5c0,4.142,3.358,7.5,7.5,7.5s7.5-3.358,7.5-7.5v-21.079H73.473z"/>
	<path style="fill:#8A9FA0;" d="M248.5,483.421V504.5c0,4.142,3.358,7.5,7.5,7.5s7.5-3.358,7.5-7.5v-21.079H248.5z"/>
	<path style="fill:#8A9FA0;" d="M306.842,483.421V504.5c0,4.142,3.358,7.5,7.5,7.5s7.5-3.358,7.5-7.5v-21.079H306.842z"/>
	<path style="fill:#8A9FA0;" d="M365.185,483.421V504.5c0,4.142,3.358,7.5,7.5,7.5s7.5-3.358,7.5-7.5v-21.079H365.185z"/>
</g>
<g>
	<path style="fill:#359EE0;" d="M194.758,225.655c-7.321,0-11.473,3.709-11.473,11.528v27.966c0,7.819,4.152,11.527,11.692,11.527
		c9.943,0,10.818-6.515,11.145-10.725c0.218-3.107,3.278-4.11,6.993-4.11c4.917,0,7.212,1.303,7.212,6.415
		c0,12.129-10.817,19.847-26.115,19.847c-13.768,0-25.131-6.215-25.131-22.954v-27.966c0-16.74,11.473-22.954,25.241-22.954
		c15.188,0,26.005,7.418,26.005,19.045c0,5.212-2.294,6.415-7.102,6.415c-4.043,0-6.993-1.103-7.103-4.11
		C205.903,232.471,205.138,225.655,194.758,225.655z"/>
	<path style="fill:#359EE0;" d="M229.94,218.238c0-2.105,2.076-4.01,5.354-4.01h21.963c13.877,0,24.803,6.114,24.803,22.553v0.602
		c0,16.438-11.254,22.754-25.678,22.754h-12.238v23.255c0,2.706-3.606,4.11-7.103,4.11c-3.605,0-7.102-1.404-7.102-4.11
		L229.94,218.238L229.94,218.238z M244.145,225.655v24.258h12.238c7.103,0,11.473-3.709,11.473-11.528v-1.203
		c0-7.819-4.371-11.528-11.473-11.528h-12.238V225.655z"/>
	<path style="fill:#359EE0;" d="M328.715,218.238c0-2.807,3.497-4.01,7.103-4.01c3.497,0,7.102,1.203,7.102,4.01v46.911
		c0,16.74-11.582,22.954-26.224,22.954c-14.751,0-26.224-6.215-26.224-22.954v-46.911c0-2.807,3.497-4.01,7.103-4.01
		c3.497,0,7.102,1.203,7.102,4.01v46.911c0,7.819,4.48,11.527,12.02,11.527c7.539,0,12.019-3.708,12.019-11.527L328.715,218.238
		L328.715,218.238z"/>
</g>
<g>
	<circle style="fill:#FFFFFF;" cx="67.67" cy="64.49" r="8.05"/>
	<circle style="fill:#FFFFFF;" cx="101.91" cy="64.49" r="8.05"/>
	<circle style="fill:#FFFFFF;" cx="136.15" cy="64.49" r="8.05"/>
	<circle style="fill:#FFFFFF;" cx="170.4" cy="64.49" r="8.05"/>
	<circle style="fill:#FFFFFF;" cx="204.64" cy="64.49" r="8.05"/>
	<circle style="fill:#FFFFFF;" cx="238.88" cy="64.49" r="8.05"/>
	<circle style="fill:#FFFFFF;" cx="273.12" cy="64.49" r="8.05"/>
	<circle style="fill:#FFFFFF;" cx="307.36" cy="64.49" r="8.05"/>
	<circle style="fill:#FFFFFF;" cx="341.61" cy="64.49" r="8.05"/>
	<circle style="fill:#FFFFFF;" cx="375.85" cy="64.49" r="8.05"/>
	<circle style="fill:#FFFFFF;" cx="410.09" cy="64.49" r="8.05"/>
	<circle style="fill:#FFFFFF;" cx="444.33" cy="64.49" r="8.05"/>
	<circle style="fill:#FFFFFF;" cx="67.67" cy="99.17" r="8.05"/>
	<circle style="fill:#FFFFFF;" cx="101.91" cy="99.17" r="8.05"/>
	<circle style="fill:#FFFFFF;" cx="136.15" cy="99.17" r="8.05"/>
	<circle style="fill:#FFFFFF;" cx="170.4" cy="99.17" r="8.05"/>
	<circle style="fill:#FFFFFF;" cx="204.64" cy="99.17" r="8.05"/>
	<circle style="fill:#FFFFFF;" cx="238.88" cy="99.17" r="8.05"/>
	<circle style="fill:#FFFFFF;" cx="273.12" cy="99.17" r="8.05"/>
	<circle style="fill:#FFFFFF;" cx="307.36" cy="99.17" r="8.05"/>
	<circle style="fill:#FFFFFF;" cx="341.61" cy="99.17" r="8.05"/>
	<circle style="fill:#FFFFFF;" cx="375.85" cy="99.17" r="8.05"/>
	<circle style="fill:#FFFFFF;" cx="410.09" cy="99.17" r="8.05"/>
	<circle style="fill:#FFFFFF;" cx="444.33" cy="99.17" r="8.05"/>
	<circle style="fill:#FFFFFF;" cx="67.67" cy="134.16" r="8.05"/>
	<circle style="fill:#FFFFFF;" cx="101.91" cy="134.16" r="8.05"/>
	<circle style="fill:#FFFFFF;" cx="410.09" cy="134.16" r="8.05"/>
	<circle style="fill:#FFFFFF;" cx="444.33" cy="134.16" r="8.05"/>
	<circle style="fill:#FFFFFF;" cx="67.67" cy="168.84" r="8.05"/>
	<circle style="fill:#FFFFFF;" cx="101.91" cy="168.84" r="8.05"/>
	<circle style="fill:#FFFFFF;" cx="410.09" cy="168.84" r="8.05"/>
	<circle style="fill:#FFFFFF;" cx="444.33" cy="168.84" r="8.05"/>
	<circle style="fill:#FFFFFF;" cx="67.67" cy="203.83" r="8.05"/>
	<circle style="fill:#FFFFFF;" cx="101.91" cy="203.83" r="8.05"/>
	<circle style="fill:#FFFFFF;" cx="410.09" cy="203.83" r="8.05"/>
	<circle style="fill:#FFFFFF;" cx="444.33" cy="203.83" r="8.05"/>
	<circle style="fill:#FFFFFF;" cx="67.67" cy="238.5" r="8.05"/>
	<circle style="fill:#FFFFFF;" cx="101.91" cy="238.5" r="8.05"/>
	<circle style="fill:#FFFFFF;" cx="410.09" cy="238.5" r="8.05"/>
	<circle style="fill:#FFFFFF;" cx="444.33" cy="238.5" r="8.05"/>
	<circle style="fill:#FFFFFF;" cx="67.67" cy="273.5" r="8.05"/>
	<circle style="fill:#FFFFFF;" cx="101.91" cy="273.5" r="8.05"/>
	<circle style="fill:#FFFFFF;" cx="410.09" cy="273.5" r="8.05"/>
	<circle style="fill:#FFFFFF;" cx="444.33" cy="273.5" r="8.05"/>
	<circle style="fill:#FFFFFF;" cx="67.67" cy="308.17" r="8.05"/>
	<circle style="fill:#FFFFFF;" cx="101.91" cy="308.17" r="8.05"/>
	<circle style="fill:#FFFFFF;" cx="410.09" cy="308.17" r="8.05"/>
	<circle style="fill:#FFFFFF;" cx="444.33" cy="308.17" r="8.05"/>
	<circle style="fill:#FFFFFF;" cx="67.67" cy="343.16" r="8.05"/>
	<circle style="fill:#FFFFFF;" cx="101.91" cy="343.16" r="8.05"/>
	<circle style="fill:#FFFFFF;" cx="410.09" cy="343.16" r="8.05"/>
	<circle style="fill:#FFFFFF;" cx="444.33" cy="343.16" r="8.05"/>
	<circle style="fill:#FFFFFF;" cx="67.67" cy="377.84" r="8.05"/>
	<circle style="fill:#FFFFFF;" cx="101.91" cy="377.84" r="8.05"/>
	<circle style="fill:#FFFFFF;" cx="410.09" cy="377.84" r="8.05"/>
	<circle style="fill:#FFFFFF;" cx="444.33" cy="377.84" r="8.05"/>
	<circle style="fill:#FFFFFF;" cx="67.67" cy="412.83" r="8.05"/>
	<circle style="fill:#FFFFFF;" cx="101.91" cy="412.83" r="8.05"/>
	<circle style="fill:#FFFFFF;" cx="136.15" cy="412.83" r="8.05"/>
	<circle style="fill:#FFFFFF;" cx="170.4" cy="412.83" r="8.05"/>
	<circle style="fill:#FFFFFF;" cx="204.64" cy="412.83" r="8.05"/>
	<circle style="fill:#FFFFFF;" cx="238.88" cy="412.83" r="8.05"/>
	<circle style="fill:#FFFFFF;" cx="273.12" cy="412.83" r="8.05"/>
	<circle style="fill:#FFFFFF;" cx="307.36" cy="412.83" r="8.05"/>
	<circle style="fill:#FFFFFF;" cx="341.61" cy="412.83" r="8.05"/>
	<circle style="fill:#FFFFFF;" cx="375.85" cy="412.83" r="8.05"/>
	<circle style="fill:#FFFFFF;" cx="410.09" cy="412.83" r="8.05"/>
	<circle style="fill:#FFFFFF;" cx="444.33" cy="412.83" r="8.05"/>
	<circle style="fill:#FFFFFF;" cx="67.67" cy="447.51" r="8.05"/>
	<circle style="fill:#FFFFFF;" cx="101.91" cy="447.51" r="8.05"/>
	<circle style="fill:#FFFFFF;" cx="136.15" cy="447.51" r="8.05"/>
	<circle style="fill:#FFFFFF;" cx="170.4" cy="447.51" r="8.05"/>
	<circle style="fill:#FFFFFF;" cx="204.64" cy="447.51" r="8.05"/>
	<circle style="fill:#FFFFFF;" cx="238.88" cy="447.51" r="8.05"/>
	<circle style="fill:#FFFFFF;" cx="273.12" cy="447.51" r="8.05"/>
	<circle style="fill:#FFFFFF;" cx="307.36" cy="447.51" r="8.05"/>
	<circle style="fill:#FFFFFF;" cx="341.61" cy="447.51" r="8.05"/>
	<circle style="fill:#FFFFFF;" cx="375.85" cy="447.51" r="8.05"/>
	<circle style="fill:#FFFFFF;" cx="410.09" cy="447.51" r="8.05"/>
	<circle style="fill:#FFFFFF;" cx="444.33" cy="447.51" r="8.05"/>
</g>
<g>
</g>
<g>
</g>
<g>
</g>
<g>
</g>
<g>
</g>
<g>
</g>
<g>
</g>
<g>
</g>
<g>
</g>
<g>
</g>
<g>
</g>
<g>
</g>
<g>
</g>
<g>
</g>
<g>
</g>
</svg>
