<?xml version="1.0" encoding="iso-8859-1"?>
<!-- Generator: Adobe Illustrator 19.0.0, SVG Export Plug-In . SVG Version: 6.00 Build 0)  -->
<svg version="1.1" id="Layer_1" xmlns="http://www.w3.org/2000/svg" xmlns:xlink="http://www.w3.org/1999/xlink" x="0px" y="0px"
	 viewBox="0 0 512 512" style="enable-background:new 0 0 512 512;" xml:space="preserve">
<g>
	<path style="fill:#344A5E;" d="M0,42.667v426.667C0,492.8,19.2,512,42.667,512h426.667C492.8,512,512,492.8,512,469.333V42.667
		C512,19.2,492.8,0,469.333,0H42.667C19.2,0,0,19.2,0,42.667z M256,464c-114.133,0-208-92.8-208-208S141.867,48,256,48
		c115.2,0,208,92.8,208,208S371.2,464,256,464z"/>
	<path style="fill:#344A5E;" d="M310.4,293.333c14.933,3.2,66.133,13.867,113.067,2.133c2.133-1.067,4.267-2.133,4.267-4.267
		c7.467-36.267,6.4-69.333-6.4-98.133c-2.133-4.267-6.4-5.333-9.6-2.133c-33.067,28.8-67.2,48-102.4,53.333
		c-3.2,0-5.333,3.2-5.333,6.4L306.133,288C306.133,291.2,308.267,293.333,310.4,293.333z"/>
	<path style="fill:#344A5E;" d="M315.733,227.2c10.667-11.733,44.8-50.133,58.667-96c1.067-2.133,0-5.333-2.133-6.4
		c-27.733-24.533-56.533-39.467-88.533-43.733c-4.267-1.067-7.467,3.2-6.4,7.467c8.533,42.667,8.533,82.133-5.333,116.267
		c-1.067,3.2,0,6.4,3.2,7.467l33.067,17.067C311.467,229.333,314.667,229.333,315.733,227.2z"/>
	<path style="fill:#344A5E;" d="M261.333,189.867c-4.267-14.933-21.333-64-54.4-99.2c-2.133-2.133-4.267-2.133-6.4-2.133
		c-35.2,11.733-62.933,28.8-82.133,54.4c-2.133,3.2-1.067,8.533,3.2,9.6c41.6,13.867,75.733,34.133,98.133,61.867
		c2.133,2.133,5.333,3.2,8.533,1.067L259.2,195.2C261.333,195.2,262.4,192,261.333,189.867z"/>
	<path style="fill:#344A5E;" d="M201.6,218.667c-14.933-3.2-66.133-13.867-113.067-2.133c-2.133,1.067-4.267,2.133-4.267,4.267
		c-7.467,36.267-6.4,69.333,6.4,98.133c2.133,4.267,6.4,5.333,9.6,2.133c33.067-28.8,67.2-48,102.4-53.333
		c3.2,0,5.333-3.2,5.333-6.4L205.867,224C205.867,220.8,203.733,218.667,201.6,218.667z"/>
	<path style="fill:#344A5E;" d="M196.267,284.8c-10.667,11.733-44.8,50.133-58.667,96c-1.067,2.133,0,5.333,2.133,6.4
		c27.733,24.533,56.533,39.467,88.533,43.733c4.267,1.067,7.467-3.2,6.4-7.467C226.133,380.8,226.133,341.333,240,307.2
		c1.067-3.2,0-6.4-3.2-7.467l-33.067-17.067C200.533,282.667,197.333,282.667,196.267,284.8z"/>
	<path style="fill:#344A5E;" d="M250.667,322.133c4.267,14.933,21.333,64,54.4,99.2c2.133,2.133,4.267,2.133,6.4,2.133
		c35.2-11.733,62.933-28.8,82.133-54.4c2.133-3.2,1.067-8.533-3.2-9.6c-41.6-13.867-75.733-34.133-98.133-61.867
		c-2.133-2.133-5.333-3.2-8.533-1.067L252.8,316.8C250.667,316.8,249.6,320,250.667,322.133z"/>
</g>
<circle style="fill:#415A6B;" cx="256" cy="256" r="77.867"/>
<circle style="fill:#344A5E;" cx="256" cy="256" r="27.733"/>
<g>
	<circle style="fill:#F3F3F3;" cx="455.467" cy="56.533" r="17.067"/>
	<circle style="fill:#F3F3F3;" cx="56.533" cy="56.533" r="17.067"/>
	<circle style="fill:#F3F3F3;" cx="56.533" cy="455.467" r="17.067"/>
	<circle style="fill:#F3F3F3;" cx="455.467" cy="455.467" r="17.067"/>
</g>
<g>
</g>
<g>
</g>
<g>
</g>
<g>
</g>
<g>
</g>
<g>
</g>
<g>
</g>
<g>
</g>
<g>
</g>
<g>
</g>
<g>
</g>
<g>
</g>
<g>
</g>
<g>
</g>
<g>
</g>
</svg>
