<?xml version="1.0" encoding="iso-8859-1"?>
<!-- Generator: Adobe Illustrator 19.0.0, SVG Export Plug-In . SVG Version: 6.00 Build 0)  -->
<svg version="1.1" id="Layer_1" xmlns="http://www.w3.org/2000/svg" xmlns:xlink="http://www.w3.org/1999/xlink" x="0px" y="0px"
	 viewBox="0 0 512.052 512.052" style="enable-background:new 0 0 512.052 512.052;" xml:space="preserve">
<path style="fill:#344A5E;" d="M225.895,490.719c5.333,12.8,17.067,21.333,30.933,21.333c13.867,0,26.667-8.533,30.933-21.333
	H225.895z"/>
<path style="fill:#F3F3F3;" d="M427.495,149.386c7.467,56.533-11.733,108.8-48,145.067c-42.667,42.667-67.2,99.2-67.2,160l0,0
	H201.362l0,0c0-58.667-22.4-116.267-65.067-156.8c-33.067-30.933-53.333-75.733-53.333-124.8c0-101.333,87.467-183.467,192-171.733
	C353.895,9.652,417.895,71.519,427.495,149.386z"/>
<path style="fill:#415A6B;" d="M318.695,475.786v-74.667H194.962v74.667c0,11.733,9.6,20.267,20.267,20.267h83.2
	C309.095,496.052,318.695,486.452,318.695,475.786z"/>
<g>
	<path style="fill:#344A5E;" d="M320.828,424.586h-128c-6.4,0-11.733-5.333-11.733-11.733l0,0c0-6.4,5.333-11.733,11.733-11.733h128
		c6.4,0,11.733,5.333,11.733,11.733l0,0C332.562,419.252,327.228,424.586,320.828,424.586z"/>
	<path style="fill:#344A5E;" d="M320.828,471.519h-128c-6.4,0-11.733-5.333-11.733-11.733l0,0c0-6.4,5.333-11.733,11.733-11.733h128
		c6.4,0,11.733,5.333,11.733,11.733l0,0C332.562,466.186,327.228,471.519,320.828,471.519z"/>
</g>
<polygon style="fill:#FFD15C;" points="215.228,312.586 250.428,213.386 208.828,213.386 294.162,83.252 264.295,182.452 
	304.828,182.452 "/>
<g>
</g>
<g>
</g>
<g>
</g>
<g>
</g>
<g>
</g>
<g>
</g>
<g>
</g>
<g>
</g>
<g>
</g>
<g>
</g>
<g>
</g>
<g>
</g>
<g>
</g>
<g>
</g>
<g>
</g>
</svg>
