<?xml version="1.0" encoding="iso-8859-1"?>
<!-- Generator: Adobe Illustrator 19.0.0, SVG Export Plug-In . SVG Version: 6.00 Build 0)  -->
<svg version="1.1" id="Layer_1" xmlns="http://www.w3.org/2000/svg" xmlns:xlink="http://www.w3.org/1999/xlink" x="0px" y="0px"
	 viewBox="0 0 511.516 511.516" style="enable-background:new 0 0 511.516 511.516;" xml:space="preserve">
<path style="fill:#F3705A;" d="M143.748,509.419c-62.933-25.6-117.333-78.933-141.867-141.867
	c-4.267-11.733-1.067-25.6,7.467-34.133c84.267-84.267,157.867-157.867,243.2-243.2c53.333,53.333,115.2,115.2,169.6,169.6
	l-243.2,242.133C169.348,510.486,155.482,513.686,143.748,509.419z"/>
<rect x="337.123" y="25.276" transform="matrix(-0.7071 0.7071 -0.7071 -0.7071 767.7704 -106.404)" style="fill:#F3F3F3;" width="137.599" height="161.065"/>
<rect x="330.549" y="69.373" transform="matrix(-0.7071 0.7071 -0.7071 -0.7071 709.5977 34.6861)" style="fill:#F7B64C;" width="34.133" height="189.865"/>
<path style="fill:#FFD15C;" d="M421.082,258.753l-25.6,25.6c-29.867-14.933-61.867-38.4-91.733-69.333
	c-29.867-30.933-61.867-70.4-76.8-100.267l25.6-25.6L421.082,258.753z"/>
<g>
	
		<rect x="371.288" y="64.455" transform="matrix(-0.7071 -0.7071 0.7071 -0.7071 605.3827 408.4682)" style="fill:#CED6E0;" width="32" height="28.8"/>
	
		<rect x="415.96" y="109.369" transform="matrix(-0.7071 -0.7071 0.7071 -0.7071 649.884 516.7282)" style="fill:#CED6E0;" width="32" height="28.8"/>
</g>
<path style="fill:#FFFFFF;" d="M241.882,307.819l23.467,23.467l-23.467,23.467l-6.4-6.4l-21.333,21.333
	c-2.133,2.133-4.267,2.133-7.467,2.133l-43.733-12.8l-30.933,30.933c4.267,7.467,2.133,18.133-4.267,24.533
	c-8.533,8.533-21.333,8.533-29.867,0s-8.533-21.333,0-29.867c6.4-6.4,16-7.467,24.533-4.267l18.133-18.133l-12.8-44.8
	c-1.067-2.133,0-5.333,2.133-7.467l21.333-21.333c-2.133-6.4-1.067-12.8,4.267-17.067c6.4-6.4,17.067-6.4,23.467,0
	c6.4,6.4,6.4,17.067,0,23.467c-4.267,4.267-11.733,6.4-17.067,4.267l-19.2,19.2l9.6,32l76.8-76.8l-18.133-18.133l62.933-17.067
	l-18.133,62.933l-18.133-18.133l-64,64l32,9.6l18.133-18.133l-6.4-6.4L241.882,307.819z"/>
<g>
</g>
<g>
</g>
<g>
</g>
<g>
</g>
<g>
</g>
<g>
</g>
<g>
</g>
<g>
</g>
<g>
</g>
<g>
</g>
<g>
</g>
<g>
</g>
<g>
</g>
<g>
</g>
<g>
</g>
</svg>
