<?xml version="1.0" encoding="iso-8859-1"?>
<!-- Generator: Adobe Illustrator 19.0.0, SVG Export Plug-In . SVG Version: 6.00 Build 0)  -->
<svg version="1.1" id="Layer_1" xmlns="http://www.w3.org/2000/svg" xmlns:xlink="http://www.w3.org/1999/xlink" x="0px" y="0px"
	 viewBox="0 0 512 512" style="enable-background:new 0 0 512 512;" xml:space="preserve">
<path style="fill:#344A5E;" d="M406.4,80H105.6C91.733,80,80,91.733,80,105.6v300.8c0,13.867,11.733,25.6,25.6,25.6h300.8
	c13.867,0,25.6-11.733,25.6-25.6V105.6C432,91.733,420.267,80,406.4,80z"/>
<path style="fill:#415A6B;" d="M131.2,380.8V131.2h171.733c29.867,29.867,46.933,46.933,77.867,77.867V380.8H131.2z"/>
<rect x="124.8" y="58.667" style="fill:#E8EAE9;" width="41.6" height="21.333"/>
<rect x="133.333" style="fill:#FFD15C;" width="23.467" height="58.667"/>
<rect x="198.4" y="58.667" style="fill:#E8EAE9;" width="41.6" height="21.333"/>
<rect x="206.933" style="fill:#FFD15C;" width="23.467" height="58.667"/>
<rect x="272" y="58.667" style="fill:#E8EAE9;" width="41.6" height="21.333"/>
<rect x="280.533" style="fill:#FFD15C;" width="23.467" height="58.667"/>
<rect x="345.6" y="58.667" style="fill:#E8EAE9;" width="41.6" height="21.333"/>
<rect x="355.2" style="fill:#FFD15C;" width="23.467" height="58.667"/>
<rect x="58.667" y="345.6" style="fill:#E8EAE9;" width="21.333" height="41.6"/>
<rect y="355.2" style="fill:#FFD15C;" width="58.667" height="23.467"/>
<rect x="58.667" y="272" style="fill:#E8EAE9;" width="21.333" height="41.6"/>
<rect y="280.533" style="fill:#FFD15C;" width="58.667" height="23.467"/>
<rect x="58.667" y="198.4" style="fill:#E8EAE9;" width="21.333" height="41.6"/>
<rect y="206.933" style="fill:#FFD15C;" width="58.667" height="23.467"/>
<rect x="58.667" y="124.8" style="fill:#E8EAE9;" width="21.333" height="41.6"/>
<rect y="133.333" style="fill:#FFD15C;" width="58.667" height="23.467"/>
<rect x="345.6" y="432" style="fill:#E8EAE9;" width="41.6" height="21.333"/>
<rect x="355.2" y="453.333" style="fill:#FFD15C;" width="23.467" height="58.667"/>
<rect x="272" y="432" style="fill:#E8EAE9;" width="41.6" height="21.333"/>
<rect x="280.533" y="453.333" style="fill:#FFD15C;" width="23.467" height="58.667"/>
<rect x="198.4" y="432" style="fill:#E8EAE9;" width="41.6" height="21.333"/>
<rect x="206.933" y="453.333" style="fill:#FFD15C;" width="23.467" height="58.667"/>
<rect x="124.8" y="432" style="fill:#E8EAE9;" width="41.6" height="21.333"/>
<rect x="133.333" y="453.333" style="fill:#FFD15C;" width="23.467" height="58.667"/>
<rect x="432" y="124.8" style="fill:#E8EAE9;" width="21.333" height="41.6"/>
<rect x="453.333" y="133.333" style="fill:#FFD15C;" width="58.667" height="23.467"/>
<rect x="432" y="198.4" style="fill:#E8EAE9;" width="21.333" height="41.6"/>
<rect x="453.333" y="206.933" style="fill:#FFD15C;" width="58.667" height="23.467"/>
<rect x="432" y="272" style="fill:#E8EAE9;" width="21.333" height="41.6"/>
<rect x="453.333" y="280.533" style="fill:#FFD15C;" width="58.667" height="23.467"/>
<rect x="432" y="345.6" style="fill:#E8EAE9;" width="21.333" height="41.6"/>
<rect x="453.333" y="355.2" style="fill:#FFD15C;" width="58.667" height="23.467"/>
<g>
</g>
<g>
</g>
<g>
</g>
<g>
</g>
<g>
</g>
<g>
</g>
<g>
</g>
<g>
</g>
<g>
</g>
<g>
</g>
<g>
</g>
<g>
</g>
<g>
</g>
<g>
</g>
<g>
</g>
</svg>
