<?xml version="1.0" encoding="iso-8859-1"?>
<!-- Generator: Adobe Illustrator 19.0.0, SVG Export Plug-In . SVG Version: 6.00 Build 0)  -->
<svg version="1.1" id="Layer_1" xmlns="http://www.w3.org/2000/svg" xmlns:xlink="http://www.w3.org/1999/xlink" x="0px" y="0px"
	 viewBox="0 0 512 512" style="enable-background:new 0 0 512 512;" xml:space="preserve">
<path style="fill:#415A6B;" d="M412.8,77.867H99.2c-11.733,0-21.333,9.6-21.333,21.333v314.667c0,11.733,9.6,21.333,21.333,21.333
	h314.667c11.733,0,21.333-9.6,21.333-21.333V99.2C434.133,87.467,424.533,77.867,412.8,77.867z"/>
<rect x="133.333" y="133.333" style="fill:#FFFFFF;" width="245.333" height="245.333"/>
<g>
	<path style="fill:#415A6B;" d="M196.267,275.2c6.4,0,12.8-3.2,17.067-8.533l8.533,9.6c-7.467,8.533-16,11.733-25.6,11.733
		c-9.6,0-18.133-3.2-24.533-9.6c-6.4-6.4-9.6-13.867-9.6-23.467c0-9.6,3.2-17.067,9.6-23.467c6.4-6.4,13.867-9.6,23.467-9.6
		c10.667,0,19.2,4.267,25.6,11.733l-6.4,11.733c-4.267-5.333-9.6-8.533-17.067-8.533c-5.333,0-9.6,2.133-13.867,5.333
		s-5.333,8.533-5.333,13.867c0,6.4,2.133,10.667,5.333,13.867C187.733,274.133,192,275.2,196.267,275.2z"/>
	<path style="fill:#415A6B;" d="M277.333,230.4c4.267,4.267,6.4,9.6,6.4,17.067s-2.133,13.867-6.4,17.067
		c-4.267,3.2-11.733,5.333-21.333,5.333h-8.533V288H233.6v-62.933H256C265.6,225.067,273.067,226.133,277.333,230.4z
		 M266.667,254.933c2.133-2.133,2.133-4.267,2.133-8.533s-1.067-6.4-3.2-7.467c-2.133-1.067-5.333-2.133-10.667-2.133H246.4v21.333
		h9.6C262.4,258.133,265.6,257.067,266.667,254.933z"/>
	<path style="fill:#415A6B;" d="M311.467,272c2.133,3.2,5.333,4.267,9.6,4.267s7.467-1.067,9.6-4.267c2.133-3.2,3.2-6.4,3.2-11.733
		v-35.2h13.867v35.2c0,9.6-2.133,16-7.467,21.333c-5.333,5.333-11.733,7.467-19.2,7.467s-13.867-2.133-19.2-7.467
		s-7.467-11.733-7.467-21.333v-35.2h13.867v35.2C308.267,264.533,309.333,268.8,311.467,272z"/>
</g>
<rect x="455.467" y="152.533" style="fill:#E8EAE9;" width="56.533" height="32"/>
<rect x="434.133" y="139.733" style="fill:#344A5E;" width="27.733" height="58.667"/>
<rect x="455.467" y="240" style="fill:#E8EAE9;" width="56.533" height="32"/>
<rect x="434.133" y="227.2" style="fill:#344A5E;" width="27.733" height="58.667"/>
<rect x="455.467" y="327.467" style="fill:#E8EAE9;" width="56.533" height="32"/>
<rect x="434.133" y="313.6" style="fill:#344A5E;" width="27.733" height="58.667"/>
<rect y="327.467" style="fill:#E8EAE9;" width="56.533" height="32"/>
<rect x="49.067" y="313.6" style="fill:#344A5E;" width="27.733" height="58.667"/>
<rect y="240" style="fill:#E8EAE9;" width="56.533" height="32"/>
<rect x="49.067" y="227.2" style="fill:#344A5E;" width="27.733" height="58.667"/>
<rect y="152.533" style="fill:#E8EAE9;" width="56.533" height="32"/>
<rect x="49.067" y="139.733" style="fill:#344A5E;" width="27.733" height="58.667"/>
<rect x="327.467" y="455.467" style="fill:#E8EAE9;" width="32" height="56.533"/>
<rect x="313.6" y="434.133" style="fill:#344A5E;" width="58.667" height="27.733"/>
<rect x="240" y="455.467" style="fill:#E8EAE9;" width="32" height="56.533"/>
<rect x="227.2" y="434.133" style="fill:#344A5E;" width="58.667" height="27.733"/>
<rect x="152.533" y="455.467" style="fill:#E8EAE9;" width="32" height="56.533"/>
<rect x="139.733" y="434.133" style="fill:#344A5E;" width="58.667" height="27.733"/>
<rect x="152.533" style="fill:#E8EAE9;" width="32" height="56.533"/>
<rect x="139.733" y="49.067" style="fill:#344A5E;" width="58.667" height="27.733"/>
<rect x="240" style="fill:#E8EAE9;" width="32" height="56.533"/>
<rect x="227.2" y="49.067" style="fill:#344A5E;" width="58.667" height="27.733"/>
<rect x="327.467" style="fill:#E8EAE9;" width="32" height="56.533"/>
<rect x="313.6" y="49.067" style="fill:#344A5E;" width="58.667" height="27.733"/>
<g>
</g>
<g>
</g>
<g>
</g>
<g>
</g>
<g>
</g>
<g>
</g>
<g>
</g>
<g>
</g>
<g>
</g>
<g>
</g>
<g>
</g>
<g>
</g>
<g>
</g>
<g>
</g>
<g>
</g>
</svg>
