<?xml version="1.0" encoding="iso-8859-1"?>
<!-- Generator: Adobe Illustrator 19.0.0, SVG Export Plug-In . SVG Version: 6.00 Build 0)  -->
<svg version="1.1" id="Capa_1" xmlns="http://www.w3.org/2000/svg" xmlns:xlink="http://www.w3.org/1999/xlink" x="0px" y="0px"
	 viewBox="0 0 468.293 468.293" style="enable-background:new 0 0 468.293 468.293;" xml:space="preserve">
<path style="fill:#64798A;" d="M346.537,468.293h-224.78c-13.794,0-24.976-11.182-24.976-24.976V24.976
	C96.78,11.182,107.962,0,121.756,0h224.78c13.794,0,24.976,11.182,24.976,24.976v418.341
	C371.512,457.111,360.33,468.293,346.537,468.293z"/>
<g>
	<rect x="165.463" y="356.464" style="fill:#3A556A;" width="12.488" height="87.415"/>
	<rect x="190.439" y="356.464" style="fill:#3A556A;" width="12.488" height="87.415"/>
	<rect x="215.415" y="356.464" style="fill:#3A556A;" width="12.488" height="87.415"/>
	<rect x="240.39" y="356.464" style="fill:#3A556A;" width="12.488" height="87.415"/>
	<rect x="265.366" y="356.464" style="fill:#3A556A;" width="12.488" height="87.415"/>
	<rect x="290.341" y="356.464" style="fill:#3A556A;" width="12.488" height="87.415"/>
</g>
<circle style="fill:#E1E6E9;" cx="234.146" cy="282.649" r="31.22"/>
<path style="fill:#D5D6DB;" d="M234.146,251.431v62.439c17.242,0,31.219-13.977,31.219-31.219
	C265.366,265.409,251.389,251.431,234.146,251.431z"/>
<path style="fill:#3A556A;" d="M340.293,112.338H128c-3.448,0-6.244-2.795-6.244-6.244V54.582c0-3.448,2.795-6.244,6.244-6.244
	h212.293c3.448,0,6.244,2.795,6.244,6.244v51.512C346.537,109.543,343.741,112.338,340.293,112.338z"/>
<path style="fill:#2F4859;" d="M134.244,92.826V67.85c0-3.448,2.796-6.244,6.244-6.244h187.317c3.448,0,6.244,2.795,6.244,6.244
	v24.976c0,3.448-2.796,6.244-6.244,6.244H140.488C137.039,99.07,134.244,96.274,134.244,92.826z"/>
<path style="fill:#3A556A;" d="M340.293,201.314H128c-3.448,0-6.244-2.795-6.244-6.244v-51.512c0-3.448,2.795-6.244,6.244-6.244
	h212.293c3.448,0,6.244,2.795,6.244,6.244v51.512C346.537,198.518,343.741,201.314,340.293,201.314z"/>
<path style="fill:#2F4859;" d="M134.244,181.801v-24.976c0-3.448,2.796-6.244,6.244-6.244h187.317c3.448,0,6.244,2.795,6.244,6.244
	v24.976c0,3.448-2.796,6.244-6.244,6.244H140.488C137.039,188.045,134.244,185.25,134.244,181.801z"/>
<g>
</g>
<g>
</g>
<g>
</g>
<g>
</g>
<g>
</g>
<g>
</g>
<g>
</g>
<g>
</g>
<g>
</g>
<g>
</g>
<g>
</g>
<g>
</g>
<g>
</g>
<g>
</g>
<g>
</g>
</svg>
