<?xml version="1.0" encoding="iso-8859-1"?>
<!-- Generator: Adobe Illustrator 19.0.0, SVG Export Plug-In . SVG Version: 6.00 Build 0)  -->
<svg version="1.1" id="Capa_1" xmlns="http://www.w3.org/2000/svg" xmlns:xlink="http://www.w3.org/1999/xlink" x="0px" y="0px"
	 viewBox="0 0 468.293 468.293" style="enable-background:new 0 0 468.293 468.293;" xml:space="preserve">
<path style="fill:#64798A;" d="M352.78,468.293H115.512c-6.897,0-12.488-5.591-12.488-12.488V12.488
	C103.024,5.591,108.615,0,115.512,0H352.78c6.897,0,12.488,5.591,12.488,12.488v443.317
	C365.268,462.702,359.677,468.293,352.78,468.293z"/>
<g>
	<path style="fill:#3A556A;" d="M127.999,233.013v-49.951c0-3.448,2.795-6.244,6.244-6.244h199.805c3.448,0,6.244,2.795,6.244,6.244
		v49.951c0,3.448-2.796,6.244-6.244,6.244H134.243C130.795,239.257,127.999,236.461,127.999,233.013z"/>
	<path style="fill:#3A556A;" d="M127.999,158.086v-49.951c0-3.448,2.795-6.244,6.244-6.244h199.805c3.448,0,6.244,2.795,6.244,6.244
		v49.951c0,3.448-2.796,6.244-6.244,6.244H134.243C130.795,164.33,127.999,161.535,127.999,158.086z"/>
	<path style="fill:#3A556A;" d="M127.999,83.159V33.208c0-3.448,2.795-6.244,6.244-6.244h199.805c3.448,0,6.244,2.795,6.244,6.244
		v49.951c0,3.448-2.796,6.244-6.244,6.244H134.243C130.795,89.403,127.999,86.608,127.999,83.159z"/>
</g>
<g>
	<rect x="146.732" y="50.388" style="fill:#64798A;" width="174.829" height="15.61"/>
	<rect x="146.732" y="125.309" style="fill:#64798A;" width="174.829" height="15.61"/>
	<rect x="146.744" y="200.236" style="fill:#64798A;" width="174.829" height="15.61"/>
</g>
<g>
	<path style="fill:#D5D6DB;" d="M234.145,368.974c-24.099,0-43.706-19.607-43.706-43.709c0-15.94,8.689-30.622,22.674-38.313
		c3.067-1.675,6.925-0.57,8.612,2.502c1.687,3.072,0.567,6.927-2.502,8.617c-9.93,5.46-16.099,15.881-16.099,27.193
		c0,17.105,13.916,31.024,31.021,31.024c17.107,0,31.024-13.919,31.024-31.024c0-11.506-6.333-22.01-16.525-27.416
		c-3.094-1.64-4.274-5.48-2.634-8.577c1.643-3.092,5.48-4.266,8.575-2.631c14.352,7.611,23.269,22.412,23.269,38.625
		C277.854,349.367,258.246,368.974,234.145,368.974z"/>
	<path style="fill:#D5D6DB;" d="M234.146,322.161c-2.802,0-5.074-2.269-5.074-5.074v-39.412c0-2.805,2.272-5.074,5.074-5.074
		s5.074,2.269,5.074,5.074v39.412C239.22,319.892,236.948,322.161,234.146,322.161z"/>
</g>
<circle style="fill:#E1E6E9;" cx="234.146" cy="416.219" r="18.732"/>
<circle style="fill:#64798A;" cx="234.146" cy="416.219" r="9.366"/>
<g>
</g>
<g>
</g>
<g>
</g>
<g>
</g>
<g>
</g>
<g>
</g>
<g>
</g>
<g>
</g>
<g>
</g>
<g>
</g>
<g>
</g>
<g>
</g>
<g>
</g>
<g>
</g>
<g>
</g>
</svg>
