<?xml version="1.0" encoding="iso-8859-1"?>
<!-- Generator: Adobe Illustrator 19.0.0, SVG Export Plug-In . SVG Version: 6.00 Build 0)  -->
<svg version="1.1" id="Layer_1" xmlns="http://www.w3.org/2000/svg" xmlns:xlink="http://www.w3.org/1999/xlink" x="0px" y="0px"
	 viewBox="0 0 512 512" style="enable-background:new 0 0 512 512;" xml:space="preserve">
<path style="fill:#EDEEF0;" d="M348.27,365.26V53.055c0-0.009-0.001-0.018-0.001-0.027V0h-53.054l0,0h-53.055v53.055v312.201
	c-19.247,15.97-30.28,39.665-29.9,65.044c0.322,21.451,8.881,41.72,24.1,57.076c15.222,15.358,35.416,24.094,56.863,24.6
	c0.674,0.016,1.345,0.023,2.017,0.023c21.799-0.001,42.309-8.341,57.943-23.612c16.119-15.745,24.997-36.824,24.997-59.354
	C378.177,404.17,367.147,380.946,348.27,365.26z"/>
<path style="fill:#DCDEE2;" d="M348.27,365.26V53.055c0-0.318-0.019-0.633-0.024-0.951h0.023V0h-53.032l0,0
	c-0.008,0-0.016,0-0.022,0v512l0,0c21.808,0.004,42.328-8.336,57.967-23.612c16.119-15.745,24.997-36.824,24.997-59.354
	C378.177,404.17,367.147,380.946,348.27,365.26z"/>
<polygon style="fill:#61A2EF;" points="275.549,33.391 275.549,53.055 275.549,54.122 275.549,233.436 314.878,233.436 
	314.878,54.122 314.878,53.055 314.878,33.391 "/>
<polygon style="fill:#528ACF;" points="295.214,33.391 295.214,57.415 295.214,57.415 295.214,233.436 314.878,233.436 
	314.878,57.415 314.878,53.055 314.878,33.391 "/>
<path style="fill:#F74D37;" d="M322.398,387.589l-7.521-4.946V216.74h-39.328v165.901l-7.521,4.946
	c-14.27,9.386-22.637,25.166-22.382,42.212c0.394,26.286,22.089,48.175,48.363,48.793c13.458,0.324,26.212-4.688,35.841-14.092
	c9.633-9.409,14.938-22.005,14.938-35.467C344.786,412.303,336.417,396.809,322.398,387.589z"/>
<path style="fill:#C43D2C;" d="M344.786,429.034c0-16.731-8.37-32.225-22.388-41.445l-7.521-4.946V216.74h-19.664v261.853
	c13.011,0.004,25.295-4.969,34.634-14.091C339.481,455.092,344.786,442.497,344.786,429.034z"/>
<g>
	<rect x="133.82" y="339.08" style="fill:#444242;" width="50.37" height="11.13"/>
	<rect x="133.82" y="307.71" style="fill:#444242;" width="69.31" height="11.13"/>
	<rect x="133.82" y="276.36" style="fill:#444242;" width="50.37" height="11.13"/>
	<rect x="133.82" y="245" style="fill:#444242;" width="69.31" height="11.13"/>
	<rect x="133.82" y="213.65" style="fill:#444242;" width="50.37" height="11.13"/>
	<rect x="133.82" y="182.29" style="fill:#444242;" width="69.31" height="11.13"/>
	<rect x="133.82" y="150.94" style="fill:#444242;" width="50.37" height="11.13"/>
	<rect x="133.82" y="119.58" style="fill:#444242;" width="69.31" height="11.13"/>
	<rect x="133.82" y="88.23" style="fill:#444242;" width="50.37" height="11.13"/>
	<rect x="133.82" y="56.876" style="fill:#444242;" width="69.31" height="11.13"/>
</g>
<g>
</g>
<g>
</g>
<g>
</g>
<g>
</g>
<g>
</g>
<g>
</g>
<g>
</g>
<g>
</g>
<g>
</g>
<g>
</g>
<g>
</g>
<g>
</g>
<g>
</g>
<g>
</g>
<g>
</g>
</svg>
