<?xml version="1.0" encoding="iso-8859-1"?>
<!-- Generator: Adobe Illustrator 19.0.0, SVG Export Plug-In . SVG Version: 6.00 Build 0)  -->
<svg version="1.1" id="Capa_1" xmlns="http://www.w3.org/2000/svg" xmlns:xlink="http://www.w3.org/1999/xlink" x="0px" y="0px"
	 viewBox="0 0 512 512" style="enable-background:new 0 0 512 512;" xml:space="preserve">
<g>
	<path style="fill:#FFDC64;" d="M390.312,159.558c-4.184,0-7.574-3.39-7.574-7.574v-27.266c0-4.184,3.39-7.574,7.574-7.574
		s7.574,3.39,7.574,7.574v27.266C397.886,156.168,394.496,159.558,390.312,159.558z"/>
	<path style="fill:#FFDC64;" d="M454.943,159.558c-4.184,0-7.574-3.39-7.574-7.574v-27.266c0-4.184,3.39-7.574,7.574-7.574
		s7.574,3.39,7.574,7.574v27.266C462.517,156.168,459.127,159.558,454.943,159.558z"/>
</g>
<g>
	<path style="fill:#D2D6CE;" d="M320.379,512c-42.737,0-77.507-34.77-77.507-77.507v-4.797c0-4.184,3.39-7.574,7.574-7.574
		c4.184,0,7.574,3.39,7.574,7.574v4.797c0,34.385,27.974,62.359,62.359,62.359s62.359-27.974,62.359-62.359V241.862
		c0-4.184,3.39-7.574,7.574-7.574s7.574,3.39,7.574,7.574v192.631C397.886,477.23,363.116,512,320.379,512z"/>
	<path style="fill:#D2D6CE;" d="M385.01,512H262.817c-42.737,0-77.507-34.77-77.507-77.507v-4.797c0-4.184,3.39-7.574,7.574-7.574
		c4.184,0,7.574,3.39,7.574,7.574v4.797c0,34.385,27.974,62.359,62.359,62.359H385.01c34.385,0,62.359-27.974,62.359-62.359V241.862
		c0-4.184,3.39-7.574,7.574-7.574s7.574,3.39,7.574,7.574v192.631C462.517,477.23,427.747,512,385.01,512z"/>
</g>
<path style="fill:#828AA0;" d="M448.225,242.367c-5.484,0-9.945-4.462-9.945-9.945v-57.716h33.325v57.716
	c0,5.484-4.462,9.945-9.945,9.945H448.225z"/>
<path style="fill:#FF507D;" d="M443.329,175.716c-6.125,0-11.108-4.984-11.108-11.108v-2.02c0-6.125,4.984-11.108,11.108-11.108
	h23.227c6.125,0,11.108,4.984,11.108,11.108v2.02c0,6.125-4.984,11.108-11.108,11.108H443.329z"/>
<path style="fill:#828AA0;" d="M383.594,242.367c-5.484,0-9.945-4.462-9.945-9.945v-57.716h33.325v57.716
	c0,5.484-4.462,9.945-9.945,9.945H383.594z"/>
<g>
	<path style="fill:#5B5D6E;" d="M453.933,232.422v-57.716H438.28v57.716c0,5.484,4.462,9.945,9.945,9.945h13.436
		c0.375,0,0.744-0.025,1.109-0.066C457.806,241.748,453.933,237.53,453.933,232.422z"/>
	<path style="fill:#5B5D6E;" d="M389.302,232.422v-57.716h-15.653v57.716c0,5.484,4.462,9.945,9.945,9.945h13.436
		c0.375,0,0.744-0.025,1.109-0.066C393.175,241.748,389.302,237.53,389.302,232.422z"/>
</g>
<path style="fill:#249ED9;" d="M378.698,175.719c-6.125,0-11.108-4.984-11.108-11.108v-2.02c0-6.125,4.984-11.108,11.108-11.108
	h23.227c6.125,0,11.108,4.984,11.108,11.108v2.02c0,6.125-4.984,11.108-11.108,11.108H378.698z"/>
<path style="fill:#F2386D;" d="M454.943,164.607v-2.02c0-6.125,4.984-11.108,11.108-11.108h-22.722
	c-6.125,0-11.108,4.984-11.108,11.108v2.02c0,6.125,4.984,11.108,11.108,11.108h22.722
	C459.926,175.716,454.943,170.732,454.943,164.607z"/>
<path style="fill:#0F8BBC;" d="M390.312,164.611v-2.02c0-6.125,4.984-11.108,11.108-11.108h-22.722
	c-6.125,0-11.108,4.984-11.108,11.108v2.02c0,6.125,4.984,11.108,11.108,11.108h22.722
	C395.295,175.719,390.312,170.735,390.312,164.611z"/>
<g>
	<path style="fill:#5B5D6E;" d="M185.457,430.201c-5.928,0-10.751-4.822-10.751-10.751v-25.604h36.355v25.604
		c0,5.928-4.822,10.751-10.751,10.751H185.457z"/>
	<path style="fill:#5B5D6E;" d="M243.657,430.201c-5.928,0-10.751-4.822-10.751-10.751v-25.604h36.355v25.604
		c0,5.928-4.822,10.751-10.751,10.751H243.657z"/>
</g>
<g>
	<path style="fill:#434751;" d="M174.706,393.846v14.875v10.729c0,5.937,4.813,10.751,10.751,10.751h14.854
		c0.65,0,1.285-0.068,1.904-0.179c-5.022-0.902-8.847-5.294-8.847-10.571v-5.767c0-2.74,2.222-4.961,4.961-4.961h12.732v-14.876
		h-17.695H174.706z"/>
	<path style="fill:#434751;" d="M269.262,408.721v-14.875h-17.695h-18.66v14.875v10.729c0,5.937,4.813,10.751,10.751,10.751h14.854
		c0.65,0,1.285-0.068,1.904-0.179c-5.022-0.902-8.847-5.294-8.847-10.571v-5.767c0-2.74,2.222-4.961,4.961-4.961h12.732V408.721z"/>
</g>
<path style="fill:#FFDC64;" d="M293.158,0H79.481C66.839,0,56.552,10.286,56.552,22.929V220.15v28.276v123.501
	c0,12.642,10.286,22.929,22.929,22.929h213.677c12.643,0,22.929-10.286,22.929-22.929V248.426V220.15V22.929
	C316.087,10.286,305.8,0,293.158,0z"/>
<path style="fill:#EFC03C;" d="M121.317,371.927V248.426V220.15V22.929C121.317,10.286,131.603,0,144.246,0H79.481
	C66.839,0,56.552,10.286,56.552,22.929V220.15v28.276v123.501c0,12.642,10.286,22.929,22.929,22.929h64.764
	C131.603,394.856,121.317,384.57,121.317,371.927z"/>
<circle style="fill:#828AA0;" cx="186.32" cy="318.571" r="51.276"/>
<path style="fill:#5B5D6E;" d="M204.769,355.017c-28.319,0-51.276-22.957-51.276-51.276c0-11.876,4.049-22.8,10.825-31.492
	c-17.308,8.235-29.275,25.88-29.275,46.322c0,28.319,22.957,51.276,51.276,51.276c16.443,0,31.067-7.749,40.45-19.783
	C220.102,353.237,212.644,355.017,204.769,355.017z"/>
<path style="fill:#434751;" d="M232.404,361.221c-2.314,0-4.553-0.684-6.476-1.976l-92.177-61.993
	c-2.573-1.731-4.317-4.361-4.914-7.405c-0.597-3.046,0.028-6.14,1.758-8.713c1.73-2.571,4.357-4.315,7.398-4.914
	c0.746-0.145,1.495-0.217,2.245-0.217c2.313,0,4.551,0.684,6.473,1.975l92.179,61.994c2.573,1.731,4.317,4.361,4.914,7.405
	c0.597,3.046-0.028,6.14-1.758,8.713c-1.73,2.571-4.357,4.315-7.398,4.914C233.904,361.149,233.154,361.221,232.404,361.221z"/>
<path style="fill:#DDA824;" d="M93.412,51.503c-7.517,0-13.633-6.116-13.633-13.633s6.116-13.633,13.633-13.633
	s13.633,6.116,13.633,13.633S100.93,51.503,93.412,51.503z"/>
<path style="fill:#B4E66E;" d="M85.951,181.775c-2.977,0-5.324-2.535-5.095-5.504l0.246-3.198c2.04-26.4,13.899-50.925,33.392-69.06
	c19.6-18.232,45.108-28.273,71.824-28.273s52.224,10.041,71.823,28.274c19.494,18.135,31.353,42.661,33.392,69.06l0.246,3.198
	c0.229,2.968-2.118,5.504-5.095,5.504H85.951V181.775z"/>
<path style="fill:#5B5D6E;" d="M49.483,249.436c-8.353,0-15.148-6.795-15.148-15.148c0-8.353,6.795-15.148,15.148-15.148h273.673
	c8.353,0,15.148,6.795,15.148,15.148c0,8.353-6.795,15.148-15.148,15.148H49.483z"/>
<path style="fill:#434751;" d="M107.045,234.288c0-8.353,6.795-15.148,15.148-15.148h-72.71c-8.353,0-15.148,6.795-15.148,15.148
	c0,8.353,6.795,15.148,15.148,15.148h72.71C113.841,249.436,107.045,242.641,107.045,234.288z"/>
<path style="fill:#A0D755;" d="M262.005,163.6c-3.169,0-6.122-2.003-7.181-5.174c-9.875-29.524-37.405-49.361-68.504-49.361
	s-58.629,19.837-68.504,49.361c-1.327,3.968-5.619,6.11-9.585,4.78c-3.968-1.326-6.108-5.618-4.78-9.585
	c11.945-35.711,45.246-59.704,82.868-59.704s70.924,23.993,82.869,59.704c1.327,3.967-0.813,8.259-4.78,9.585
	C263.611,163.473,262.8,163.6,262.005,163.6z"/>
<path style="fill:#828AA0;" d="M198.134,170.038c-1.447,0-2.908-0.413-4.201-1.278c-3.478-2.324-4.413-7.027-2.088-10.505
	l18.474-27.646c2.323-3.478,7.028-4.414,10.505-2.088c3.478,2.324,4.413,7.027,2.088,10.505l-18.474,27.646
	C202.978,168.856,200.579,170.038,198.134,170.038z"/>
<path style="fill:#EFC03C;" d="M281.247,51.503c-7.517,0-13.633-6.116-13.633-13.633s6.116-13.633,13.633-13.633
	s13.633,6.116,13.633,13.633S288.764,51.503,281.247,51.503z"/>
<path style="fill:#249ED9;" d="M186.32,158.738c-12.723,0-23.037,10.314-23.037,23.037h46.074
	C209.356,169.052,199.043,158.738,186.32,158.738z"/>
<g>
</g>
<g>
</g>
<g>
</g>
<g>
</g>
<g>
</g>
<g>
</g>
<g>
</g>
<g>
</g>
<g>
</g>
<g>
</g>
<g>
</g>
<g>
</g>
<g>
</g>
<g>
</g>
<g>
</g>
</svg>
